<svg width="220" height="56" viewBox="0 0 220 56" fill="none" xmlns="http://www.w3.org/2000/svg">
<path d="M0 8C0 3.58172 3.58172 0 8 0H212C216.418 0 220 3.58172 220 8V48C220 52.4183 216.418 56 212 56H8.00001C3.58173 56 0 52.4183 0 48V8Z" fill="none"/>
<path d="M33 27.56C33 22.582 33 20.093 34.5465 18.5465C36.093 17 38.582 17 43.56 17H44.44C49.418 17 51.907 17 53.4535 18.5465C55 20.093 55 22.582 55 27.56V28.44C55 33.418 55 35.907 53.4535 37.4535C51.907 39 49.418 39 44.44 39H43.56C38.582 39 36.093 39 34.5465 37.4535C33 35.907 33 33.418 33 28.44V27.56Z" fill="white"/>
<path d="M44.7065 32.9C39.6841 32.9 36.8194 29.4466 36.7 23.7H39.2158C39.2984 27.9178 41.1531 29.7044 42.6222 30.0728V23.7H44.9912V27.3376C46.4419 27.1811 47.9659 25.5234 48.4801 23.7H50.849C50.4542 25.9471 48.8015 27.6047 47.6262 28.2862C48.8015 28.8387 50.6838 30.2846 51.4 32.9H48.7923C48.2322 31.1503 46.8367 29.7965 44.9912 29.6123V32.9H44.7065Z" fill="#0077FF"/>
<path d="M75.7607 28.5381H72.6812L72.6646 27.019H75.354C75.8078 27.019 76.1924 26.9526 76.5078 26.8198C76.8288 26.6815 77.0723 26.485 77.2383 26.2305C77.4043 25.9704 77.4873 25.6577 77.4873 25.2925C77.4873 24.8885 77.4098 24.5592 77.2549 24.3047C77.0999 24.0501 76.862 23.8647 76.541 23.7485C76.2256 23.6323 75.8216 23.5742 75.3291 23.5742H73.312V34H71.2285V21.9141H75.3291C75.9932 21.9141 76.5853 21.9777 77.1055 22.105C77.6312 22.2323 78.0767 22.4315 78.4419 22.7026C78.8127 22.9683 79.0921 23.3058 79.2803 23.7153C79.474 24.1248 79.5708 24.6118 79.5708 25.1763C79.5708 25.6743 79.4518 26.1309 79.2139 26.5459C78.9759 26.9554 78.6245 27.2902 78.1597 27.5503C77.6948 27.8104 77.1165 27.9653 76.4248 28.0151L75.7607 28.5381ZM75.6694 34H72.0254L72.9634 32.3481H75.6694C76.1398 32.3481 76.5327 32.2707 76.8481 32.1157C77.1636 31.9552 77.3988 31.7367 77.5537 31.46C77.7142 31.1777 77.7944 30.8485 77.7944 30.4722C77.7944 30.0793 77.7253 29.7389 77.5869 29.4512C77.4486 29.1579 77.23 28.9338 76.9312 28.7788C76.6323 28.6183 76.2422 28.5381 75.7607 28.5381H73.4199L73.4365 27.019H76.4829L76.9561 27.5918C77.6201 27.6139 78.1652 27.7606 78.5913 28.0317C79.0229 28.3029 79.3439 28.6543 79.5542 29.0859C79.7645 29.5176 79.8696 29.9824 79.8696 30.4805C79.8696 31.2497 79.7008 31.8944 79.3633 32.4146C79.0312 32.9347 78.5526 33.3304 77.9272 33.6016C77.3019 33.8672 76.5493 34 75.6694 34ZM81.3887 29.6089V29.418C81.3887 28.7705 81.4827 28.1701 81.6709 27.6167C81.859 27.0578 82.1302 26.5736 82.4844 26.1641C82.8441 25.749 83.2812 25.4281 83.7959 25.2012C84.3161 24.9688 84.9027 24.8525 85.5557 24.8525C86.2142 24.8525 86.8008 24.9688 87.3154 25.2012C87.8356 25.4281 88.2756 25.749 88.6353 26.1641C88.995 26.5736 89.2689 27.0578 89.457 27.6167C89.6452 28.1701 89.7393 28.7705 89.7393 29.418V29.6089C89.7393 30.2563 89.6452 30.8568 89.457 31.4102C89.2689 31.9635 88.995 32.4478 88.6353 32.8628C88.2756 33.2723 87.8384 33.5933 87.3237 33.8257C86.8091 34.0526 86.2253 34.166 85.5723 34.166C84.9137 34.166 84.3244 34.0526 83.8042 33.8257C83.2896 33.5933 82.8524 33.2723 82.4927 32.8628C82.133 32.4478 81.859 31.9635 81.6709 31.4102C81.4827 30.8568 81.3887 30.2563 81.3887 29.6089ZM83.3892 29.418V29.6089C83.3892 30.0129 83.4307 30.3947 83.5137 30.7544C83.5967 31.1141 83.7267 31.4295 83.9038 31.7007C84.0809 31.9718 84.3078 32.1849 84.5845 32.3398C84.8612 32.4948 85.1904 32.5723 85.5723 32.5723C85.943 32.5723 86.264 32.4948 86.5352 32.3398C86.8118 32.1849 87.0387 31.9718 87.2158 31.7007C87.3929 31.4295 87.5229 31.1141 87.606 30.7544C87.6945 30.3947 87.7388 30.0129 87.7388 29.6089V29.418C87.7388 29.0195 87.6945 28.6432 87.606 28.2891C87.5229 27.9294 87.3901 27.6112 87.2075 27.3345C87.0304 27.0578 86.8035 26.842 86.5269 26.687C86.2557 26.5265 85.932 26.4463 85.5557 26.4463C85.1794 26.4463 84.8529 26.5265 84.5762 26.687C84.305 26.842 84.0809 27.0578 83.9038 27.3345C83.7267 27.6112 83.5967 27.9294 83.5137 28.2891C83.4307 28.6432 83.3892 29.0195 83.3892 29.418ZM93.4829 31.0781L97.0107 25.0186H99.0112V34H97.0107V27.9321L93.4829 34H91.4824V25.0186H93.4829V31.0781ZM96.4795 21.5654H97.9653C97.9653 22.0247 97.8547 22.4315 97.6333 22.7856C97.4175 23.1343 97.1076 23.4082 96.7036 23.6074C96.3052 23.8066 95.8293 23.9062 95.2759 23.9062C94.4403 23.9062 93.779 23.6904 93.292 23.2588C92.8105 22.8216 92.5698 22.2572 92.5698 21.5654H94.0557C94.0557 21.8753 94.147 22.1493 94.3296 22.3872C94.5177 22.6196 94.8332 22.7358 95.2759 22.7358C95.7131 22.7358 96.0229 22.6196 96.2056 22.3872C96.3882 22.1493 96.4795 21.8753 96.4795 21.5654ZM105.295 25.0186V34H103.286V25.0186H105.295ZM108.242 25.0186V26.5957H100.389V25.0186H108.242ZM111.645 31.0781L115.173 25.0186H117.173V34H115.173V27.9321L111.645 34H109.645V25.0186H111.645V31.0781ZM127.192 32.5723C127.519 32.5723 127.812 32.5086 128.072 32.3813C128.338 32.2485 128.551 32.0659 128.711 31.8335C128.877 31.6011 128.969 31.3327 128.985 31.0283H130.87C130.859 31.6094 130.687 32.1379 130.355 32.6138C130.023 33.0897 129.583 33.4688 129.035 33.751C128.487 34.0277 127.881 34.166 127.217 34.166C126.531 34.166 125.933 34.0498 125.424 33.8174C124.915 33.5794 124.492 33.2529 124.154 32.8379C123.817 32.4229 123.562 31.9442 123.391 31.4019C123.225 30.8595 123.142 30.2785 123.142 29.6587V29.3682C123.142 28.7484 123.225 28.1673 123.391 27.625C123.562 27.0771 123.817 26.5957 124.154 26.1807C124.492 25.7656 124.915 25.4419 125.424 25.2095C125.933 24.9715 126.528 24.8525 127.209 24.8525C127.928 24.8525 128.559 24.9964 129.102 25.2842C129.644 25.5664 130.07 25.9621 130.38 26.4712C130.695 26.9748 130.859 27.5614 130.87 28.231H128.985C128.969 27.8989 128.886 27.6001 128.736 27.3345C128.592 27.0633 128.388 26.8475 128.122 26.687C127.862 26.5265 127.549 26.4463 127.184 26.4463C126.78 26.4463 126.445 26.5293 126.18 26.6953C125.914 26.8558 125.707 27.0771 125.557 27.3594C125.408 27.6361 125.3 27.9487 125.233 28.2974C125.173 28.6405 125.142 28.9974 125.142 29.3682V29.6587C125.142 30.0295 125.173 30.3892 125.233 30.7378C125.294 31.0864 125.399 31.3991 125.549 31.6758C125.704 31.9469 125.914 32.1655 126.18 32.3315C126.445 32.492 126.783 32.5723 127.192 32.5723ZM140.98 31.792L144.159 21.9141H146.458L142.125 34H140.573L140.98 31.792ZM138.042 21.9141L141.196 31.792L141.627 34H140.067L135.75 21.9141H138.042ZM149.895 21.9141V34H147.812V21.9141H149.895ZM157.158 21.9141L152.261 27.7329L149.472 30.688L149.106 28.6211L151.099 26.1641L154.618 21.9141H157.158ZM154.917 34L150.941 28.2725L152.377 26.853L157.391 34H154.917ZM165.011 21.9141V34H162.927V21.9141H165.011ZM171.112 34H168.53L168.547 32.3481H171.112C171.859 32.3481 172.484 32.1849 172.988 31.8584C173.497 31.5319 173.879 31.0643 174.133 30.4556C174.393 29.8468 174.523 29.1219 174.523 28.2808V27.625C174.523 26.972 174.449 26.3937 174.299 25.8901C174.155 25.3866 173.94 24.9632 173.652 24.6201C173.37 24.277 173.021 24.0169 172.606 23.8398C172.196 23.6628 171.723 23.5742 171.187 23.5742H168.48V21.9141H171.187C171.989 21.9141 172.722 22.0496 173.386 22.3208C174.05 22.5864 174.623 22.971 175.104 23.4746C175.591 23.9782 175.965 24.5814 176.225 25.2842C176.485 25.987 176.615 26.7728 176.615 27.6416V28.2808C176.615 29.1496 176.485 29.9354 176.225 30.6382C175.965 31.341 175.591 31.9442 175.104 32.4478C174.618 32.9458 174.036 33.3304 173.361 33.6016C172.692 33.8672 171.942 34 171.112 34ZM169.684 21.9141V34H167.601V21.9141H169.684Z" fill="white"/>
</svg>
